<svg width="41" height="40" viewBox="0 0 41 40" fill="none" xmlns="http://www.w3.org/2000/svg">
<path d="M37.9415 9.96402C36.6627 10.5453 35.2843 10.9272 33.8561 11.1099C35.3175 10.2297 36.4468 8.83473 36.9783 7.1574C35.5999 7.98776 34.072 8.56901 32.4611 8.90116C31.1491 7.47294 29.3057 6.64258 27.2132 6.64258C23.3105 6.64258 20.122 9.83116 20.122 13.7671C20.122 14.3317 20.1884 14.8798 20.3046 15.3946C14.3925 15.0956 9.12799 12.2558 5.62387 7.95455C5.0094 9.0008 4.66065 10.2297 4.66065 11.5251C4.66065 13.9996 5.90619 16.1917 7.83263 17.4373C6.65352 17.4373 5.55744 17.1051 4.59422 16.6069C4.59422 16.6069 4.59422 16.6069 4.59422 16.6567C4.59422 20.111 7.05209 23.0007 10.3071 23.6484C9.70924 23.8144 9.07817 23.8975 8.43049 23.8975C7.98209 23.8975 7.5337 23.8476 7.10191 23.7646C7.9987 26.5712 10.606 28.6637 13.7448 28.7135C11.3201 30.64 8.24781 31.7693 4.89315 31.7693C4.32851 31.7693 3.76386 31.7361 3.19922 31.6696C6.35459 33.6957 10.1078 34.8748 14.1268 34.8748C27.2132 34.8748 34.4041 24.0137 34.4041 14.5974C34.4041 14.2819 34.4041 13.983 34.3875 13.6674C35.7825 12.671 36.9783 11.4088 37.9415 9.96402Z" fill="#FC3F04"/>
</svg>
