<svg width="40" height="40" viewBox="0 0 40 40" fill="none" xmlns="http://www.w3.org/2000/svg">
<path d="M19.9998 3.38672C10.8658 3.38672 3.39258 10.8434 3.39258 20.0271C3.39258 28.3307 9.47081 35.2227 17.4091 36.4683V24.8432H13.1908V20.0271H17.4091V16.3569C17.4091 12.1885 19.8835 9.89674 23.6866 9.89674C25.4968 9.89674 27.39 10.2123 27.39 10.2123V14.3143H25.2975C23.2382 14.3143 22.5905 15.593 22.5905 16.905V20.0271H27.2073L26.46 24.8432H22.5905V36.4683C26.5039 35.8502 30.0674 33.8535 32.6377 30.8385C35.2081 27.8236 36.6159 23.989 36.607 20.0271C36.607 10.8434 29.1337 3.38672 19.9998 3.38672Z" fill="#FC3F04"/>
</svg>
