<svg width="41" height="40" viewBox="0 0 41 40" fill="none" xmlns="http://www.w3.org/2000/svg">
<path d="M13.4544 3.32227H27.4045C32.7188 3.32227 37.0367 7.64014 37.0367 12.9544V26.9045C37.0367 29.4591 36.0219 31.9091 34.2155 33.7155C32.4091 35.5219 29.9591 36.5367 27.4045 36.5367H13.4544C8.14014 36.5367 3.82227 32.2188 3.82227 26.9045V12.9544C3.82227 10.3998 4.83708 7.94985 6.64347 6.14347C8.44985 4.33708 10.8998 3.32227 13.4544 3.32227ZM13.1223 6.64371C11.5367 6.64371 10.016 7.27359 8.8948 8.3948C7.77359 9.516 7.14371 11.0367 7.14371 12.6223V27.2366C7.14371 30.5415 9.81747 33.2152 13.1223 33.2152H27.7366C29.3223 33.2152 30.8429 32.5853 31.9641 31.4641C33.0853 30.3429 33.7152 28.8223 33.7152 27.2366V12.6223C33.7152 9.31747 31.0415 6.64371 27.7366 6.64371H13.1223ZM29.1482 9.13479C29.6988 9.13479 30.2268 9.3535 30.6161 9.7428C31.0054 10.1321 31.2241 10.6601 31.2241 11.2107C31.2241 11.7612 31.0054 12.2893 30.6161 12.6786C30.2268 13.0679 29.6988 13.2866 29.1482 13.2866C28.5977 13.2866 28.0697 13.0679 27.6804 12.6786C27.2911 12.2893 27.0723 11.7612 27.0723 11.2107C27.0723 10.6601 27.2911 10.1321 27.6804 9.7428C28.0697 9.3535 28.5977 9.13479 29.1482 9.13479ZM20.4295 11.6259C22.6317 11.6259 24.7438 12.5007 26.301 14.0579C27.8582 15.6152 28.7331 17.7272 28.7331 19.9295C28.7331 22.1317 27.8582 24.2438 26.301 25.801C24.7438 27.3582 22.6317 28.2331 20.4295 28.2331C18.2272 28.2331 16.1152 27.3582 14.5579 25.801C13.0007 24.2438 12.1259 22.1317 12.1259 19.9295C12.1259 17.7272 13.0007 15.6152 14.5579 14.0579C16.1152 12.5007 18.2272 11.6259 20.4295 11.6259ZM20.4295 14.9473C19.1081 14.9473 17.8409 15.4722 16.9065 16.4065C15.9722 17.3409 15.4473 18.6081 15.4473 19.9295C15.4473 21.2508 15.9722 22.5181 16.9065 23.4524C17.8409 24.3867 19.1081 24.9116 20.4295 24.9116C21.7508 24.9116 23.0181 24.3867 23.9524 23.4524C24.8867 22.5181 25.4116 21.2508 25.4116 19.9295C25.4116 18.6081 24.8867 17.3409 23.9524 16.4065C23.0181 15.4722 21.7508 14.9473 20.4295 14.9473Z" fill="#FC3F04"/>
</svg>
