<svg width="60" height="60" viewBox="0 0 60 60" fill="none" xmlns="http://www.w3.org/2000/svg">
<path fill-rule="evenodd" clip-rule="evenodd" d="M45 7.5C46.9891 7.5 48.8968 8.29018 50.3033 9.6967C51.7098 11.1032 52.5 13.0109 52.5 15V45C52.5 46.9891 51.7098 48.8968 50.3033 50.3033C48.8968 51.7098 46.9891 52.5 45 52.5H15C13.0109 52.5 11.1032 51.7098 9.6967 50.3033C8.29018 48.8968 7.5 46.9891 7.5 45V15C7.5 13.0109 8.29018 11.1032 9.6967 9.6967C11.1032 8.29018 13.0109 7.5 15 7.5H45ZM20 25C19.337 25 18.7011 25.2634 18.2322 25.7322C17.7634 26.2011 17.5 26.837 17.5 27.5V40C17.5 40.663 17.7634 41.2989 18.2322 41.7678C18.7011 42.2366 19.337 42.5 20 42.5C20.663 42.5 21.2989 42.2366 21.7678 41.7678C22.2366 41.2989 22.5 40.663 22.5 40V27.5C22.5 26.837 22.2366 26.2011 21.7678 25.7322C21.2989 25.2634 20.663 25 20 25ZM27.5 22.5C26.837 22.5 26.2011 22.7634 25.7322 23.2322C25.2634 23.7011 25 24.337 25 25V40C25 40.663 25.2634 41.2989 25.7322 41.7678C26.2011 42.2366 26.837 42.5 27.5 42.5C28.163 42.5 28.7989 42.2366 29.2678 41.7678C29.7366 41.2989 30 40.663 30 40V30.85C30.7625 29.99 32.05 28.98 33.4825 28.3675C34.315 28.0125 35.5675 27.8675 36.4375 28.1425C36.7261 28.2157 36.9832 28.3807 37.17 28.6125C37.3 28.7875 37.5 29.1775 37.5 30V40C37.5 40.663 37.7634 41.2989 38.2322 41.7678C38.7011 42.2366 39.337 42.5 40 42.5C40.663 42.5 41.2989 42.2366 41.7678 41.7678C42.2366 41.2989 42.5 40.663 42.5 40V30C42.5 28.325 42.075 26.835 41.19 25.64C40.3756 24.5564 39.2359 23.7618 37.9375 23.3725C35.6825 22.665 33.185 23.0575 31.5175 23.7725C30.9832 24.0012 30.4631 24.2616 29.96 24.5525C29.8552 23.9765 29.5515 23.4555 29.102 23.0804C28.6524 22.7053 28.0855 22.4999 27.5 22.5ZM20 17.5C19.337 17.5 18.7011 17.7634 18.2322 18.2322C17.7634 18.7011 17.5 19.337 17.5 20C17.5 20.663 17.7634 21.2989 18.2322 21.7678C18.7011 22.2366 19.337 22.5 20 22.5C20.663 22.5 21.2989 22.2366 21.7678 21.7678C22.2366 21.2989 22.5 20.663 22.5 20C22.5 19.337 22.2366 18.7011 21.7678 18.2322C21.2989 17.7634 20.663 17.5 20 17.5Z" fill="#FC3F04"/>
</svg>
