<svg width="60" height="60" viewBox="0 0 60 60" fill="none" xmlns="http://www.w3.org/2000/svg">
<path d="M11.5375 47.5C10.3875 47.5 9.4275 47.115 8.6575 46.345C7.88583 45.5733 7.5 44.6125 7.5 43.4625V16.5375C7.5 15.3875 7.88583 14.4275 8.6575 13.6575C9.4275 12.8858 10.3875 12.5 11.5375 12.5H48.4625C49.6125 12.5 50.5725 12.8858 51.3425 13.6575C52.1142 14.4275 52.5 15.3875 52.5 16.5375V43.4625C52.5 44.6125 52.115 45.5725 51.345 46.3425C50.5733 47.1142 49.6125 47.5 48.4625 47.5H11.5375ZM30 30.2875L50 17.2125L49.23 15L30 27.5L10.77 15L10 17.2125L30 30.2875Z" fill="#FC3F04"/>
</svg>
