<svg width="60" height="60" viewBox="0 0 60 60" fill="none" xmlns="http://www.w3.org/2000/svg">
<path d="M41.3902 32.2649L40.2527 33.3974C40.2527 33.3974 37.5452 36.0875 30.1577 28.7424C22.7702 21.3974 25.4777 18.7074 25.4777 18.7074L26.1927 17.9924C27.9602 16.2374 28.1277 13.4174 26.5852 11.3574L23.4352 7.14995C21.5252 4.59995 17.8377 4.26245 15.6502 6.43745L11.7252 10.3374C10.6427 11.4174 9.91769 12.8124 10.0052 14.3624C10.2302 18.3299 12.0252 26.8624 22.0352 36.8175C32.6527 47.3725 42.6152 47.7924 46.6877 47.4124C47.9777 47.2924 49.0977 46.6374 50.0002 45.7374L53.5502 42.2074C55.9502 39.8249 55.2752 35.7374 52.2052 34.07L47.4302 31.4725C45.4152 30.3799 42.9652 30.7 41.3902 32.2649Z" fill="#FC3F04"/>
</svg>
